<mxfile host="app.diagrams.net" modified="2022-03-01T07:44:15.921Z" agent="5.0 (Windows NT 10.0; Win64; x64) AppleWebKit/537.36 (KHTML, like Gecko) Chrome/98.0.4758.102 Safari/537.36" etag="WifFaJW9UusQr3o6Yck2" version="16.6.4" type="github">
  <diagram id="S0luwgItWYhhb8E1CGb0" name="第 1 页">
    <mxGraphModel dx="1110" dy="413" grid="1" gridSize="10" guides="1" tooltips="1" connect="1" arrows="1" fold="1" page="1" pageScale="1" pageWidth="827" pageHeight="1169" math="0" shadow="0">
      <root>
        <mxCell id="0" />
        <mxCell id="1" parent="0" />
        <mxCell id="yPjVpfvwMXeOxSG3gXlp-69" value="0" style="rounded=0;whiteSpace=wrap;html=1;" vertex="1" parent="1">
          <mxGeometry x="210" y="240" width="40" height="30" as="geometry" />
        </mxCell>
        <mxCell id="yPjVpfvwMXeOxSG3gXlp-70" value="0" style="rounded=0;whiteSpace=wrap;html=1;" vertex="1" parent="1">
          <mxGeometry x="250" y="240" width="40" height="30" as="geometry" />
        </mxCell>
        <mxCell id="yPjVpfvwMXeOxSG3gXlp-71" value="0" style="rounded=0;whiteSpace=wrap;html=1;" vertex="1" parent="1">
          <mxGeometry x="290" y="240" width="40" height="30" as="geometry" />
        </mxCell>
        <mxCell id="yPjVpfvwMXeOxSG3gXlp-72" value="0" style="rounded=0;whiteSpace=wrap;html=1;" vertex="1" parent="1">
          <mxGeometry x="330" y="240" width="40" height="30" as="geometry" />
        </mxCell>
        <mxCell id="yPjVpfvwMXeOxSG3gXlp-73" value="0" style="rounded=0;whiteSpace=wrap;html=1;" vertex="1" parent="1">
          <mxGeometry x="370" y="240" width="40" height="30" as="geometry" />
        </mxCell>
        <mxCell id="yPjVpfvwMXeOxSG3gXlp-74" value="0" style="rounded=0;whiteSpace=wrap;html=1;" vertex="1" parent="1">
          <mxGeometry x="410" y="240" width="40" height="30" as="geometry" />
        </mxCell>
        <mxCell id="yPjVpfvwMXeOxSG3gXlp-75" value="0" style="rounded=0;whiteSpace=wrap;html=1;" vertex="1" parent="1">
          <mxGeometry x="450" y="240" width="40" height="30" as="geometry" />
        </mxCell>
        <mxCell id="yPjVpfvwMXeOxSG3gXlp-77" value="0" style="rounded=0;whiteSpace=wrap;html=1;" vertex="1" parent="1">
          <mxGeometry x="170" y="240" width="40" height="30" as="geometry" />
        </mxCell>
        <mxCell id="yPjVpfvwMXeOxSG3gXlp-78" value="&lt;h3&gt;假设有一组整数&amp;nbsp;&lt;/h3&gt;" style="text;html=1;strokeColor=none;fillColor=none;align=center;verticalAlign=middle;whiteSpace=wrap;rounded=0;" vertex="1" parent="1">
          <mxGeometry x="40" y="150" width="120" height="50" as="geometry" />
        </mxCell>
        <mxCell id="yPjVpfvwMXeOxSG3gXlp-80" value="&lt;h3&gt;Max/32 + 1&amp;nbsp;&lt;/h3&gt;" style="text;html=1;strokeColor=none;fillColor=none;align=center;verticalAlign=middle;whiteSpace=wrap;rounded=0;" vertex="1" parent="1">
          <mxGeometry x="280" y="380" width="100" height="30" as="geometry" />
        </mxCell>
        <mxCell id="yPjVpfvwMXeOxSG3gXlp-81" value="" style="shape=curlyBracket;whiteSpace=wrap;html=1;rounded=1;flipH=1;rotation=90;" vertex="1" parent="1">
          <mxGeometry x="320" y="190" width="20" height="300" as="geometry" />
        </mxCell>
        <mxCell id="yPjVpfvwMXeOxSG3gXlp-82" value="&lt;h3&gt;8位&lt;/h3&gt;" style="text;html=1;strokeColor=none;fillColor=none;align=center;verticalAlign=middle;whiteSpace=wrap;rounded=0;" vertex="1" parent="1">
          <mxGeometry x="300" y="360" width="60" height="30" as="geometry" />
        </mxCell>
        <mxCell id="yPjVpfvwMXeOxSG3gXlp-83" value="&lt;h3&gt;n/32+1取模&lt;/h3&gt;" style="text;html=1;strokeColor=none;fillColor=none;align=center;verticalAlign=middle;whiteSpace=wrap;rounded=0;" vertex="1" parent="1">
          <mxGeometry x="530" y="280" width="80" height="30" as="geometry" />
        </mxCell>
        <mxCell id="yPjVpfvwMXeOxSG3gXlp-84" value="&lt;h3&gt;&lt;font color=&quot;#cc0000&quot;&gt;1&lt;/font&gt;&lt;/h3&gt;" style="text;html=1;strokeColor=none;fillColor=none;align=center;verticalAlign=middle;whiteSpace=wrap;rounded=0;" vertex="1" parent="1">
          <mxGeometry x="210" y="280" width="40" height="30" as="geometry" />
        </mxCell>
        <mxCell id="yPjVpfvwMXeOxSG3gXlp-85" value="&lt;h3&gt;&lt;font color=&quot;#cc0000&quot;&gt;1&lt;/font&gt;&lt;/h3&gt;" style="text;html=1;strokeColor=none;fillColor=none;align=center;verticalAlign=middle;whiteSpace=wrap;rounded=0;" vertex="1" parent="1">
          <mxGeometry x="450" y="280" width="40" height="30" as="geometry" />
        </mxCell>
        <mxCell id="yPjVpfvwMXeOxSG3gXlp-86" value="&lt;h3&gt;&lt;font color=&quot;#cc0000&quot;&gt;1&lt;/font&gt;&lt;/h3&gt;" style="text;html=1;strokeColor=none;fillColor=none;align=center;verticalAlign=middle;whiteSpace=wrap;rounded=0;" vertex="1" parent="1">
          <mxGeometry x="394" y="280" width="40" height="30" as="geometry" />
        </mxCell>
        <mxCell id="yPjVpfvwMXeOxSG3gXlp-88" value="&lt;font color=&quot;#000000&quot;&gt;7&lt;/font&gt;" style="rounded=0;whiteSpace=wrap;html=1;fontColor=#CC0000;" vertex="1" parent="1">
          <mxGeometry x="200" y="130" width="40" height="30" as="geometry" />
        </mxCell>
        <mxCell id="yPjVpfvwMXeOxSG3gXlp-89" value="&lt;font color=&quot;#000000&quot;&gt;5&lt;/font&gt;" style="rounded=0;whiteSpace=wrap;html=1;fontColor=#CC0000;" vertex="1" parent="1">
          <mxGeometry x="280" y="150" width="40" height="30" as="geometry" />
        </mxCell>
        <mxCell id="yPjVpfvwMXeOxSG3gXlp-90" value="&lt;font color=&quot;#000000&quot;&gt;3&lt;/font&gt;" style="rounded=0;whiteSpace=wrap;html=1;fontColor=#CC0000;" vertex="1" parent="1">
          <mxGeometry x="330" y="110" width="40" height="30" as="geometry" />
        </mxCell>
        <mxCell id="yPjVpfvwMXeOxSG3gXlp-92" value="&lt;font color=&quot;#000000&quot;&gt;1&lt;/font&gt;" style="rounded=0;whiteSpace=wrap;html=1;fontColor=#CC0000;" vertex="1" parent="1">
          <mxGeometry x="410" y="170" width="40" height="30" as="geometry" />
        </mxCell>
      </root>
    </mxGraphModel>
  </diagram>
</mxfile>
